<svg width="220" height="82" viewBox="0 0 220 82" fill="none" xmlns="http://www.w3.org/2000/svg">
<g clip-path="url(#clip0_512_2702)">
<g filter="url(#filter0_d_512_2702)">
<path d="M0 9.86127C0 4.41503 4.41505 0 9.86128 0H209.278C214.725 0 219.14 4.41505 219.14 9.86128V71.2204C219.14 76.6666 214.725 81.0817 209.278 81.0817H9.86129C4.41505 81.0817 0 76.6666 0 71.2204V9.86127Z" fill="url(#paint0_linear_512_2702)"/>
</g>
<path d="M224.385 71.9774C229.39 65.2226 240.114 68.8203 240.033 77.2268L239.434 139.248C239.398 143.007 241.787 146.362 245.351 147.558L304.136 167.278C312.105 169.951 311.998 181.259 303.982 183.782L244.817 202.401C241.233 203.529 238.782 206.836 238.745 210.594L238.146 272.628C238.065 281.034 227.275 284.424 222.4 277.576L186.446 227.061C184.265 223.997 180.359 222.687 176.772 223.816L117.628 242.429C109.609 244.952 103.047 235.74 108.051 228.986L144.984 179.141C147.221 176.121 147.26 172.005 145.081 168.944L109.114 118.411C104.241 111.564 110.975 102.48 118.943 105.153L177.729 124.873C181.293 126.069 185.222 124.833 187.46 121.813L224.385 71.9774Z" fill="white"/>
<path d="M12.6024 116.144C25.0078 116.144 35.0643 105.842 35.0643 93.1343C35.0643 80.4265 25.0078 70.1247 12.6024 70.1247C0.197122 70.1247 -9.85938 80.4265 -9.85938 93.1343C-9.85938 105.842 0.197122 116.144 12.6024 116.144Z" fill="#AAEAFF"/>
<path d="M157.142 -35.3191L141.563 -47.5659C137.261 -50.9477 130.819 -49.9311 127.175 -45.2952L113.977 -28.5071C110.333 -23.8711 110.866 -17.3715 115.168 -13.9896L130.747 -1.74291C135.049 1.63893 141.491 0.622304 145.135 -4.01361L158.332 -20.8017C161.977 -25.4376 161.444 -31.9373 157.142 -35.3191Z" fill="url(#paint1_radial_512_2702)"/>
<path d="M157.142 96.1647L141.563 83.9179C137.261 80.5361 130.819 81.5527 127.175 86.1886L113.977 102.977C110.333 107.613 110.866 114.112 115.168 117.494L130.747 129.741C135.049 133.123 141.491 132.106 145.135 127.47L158.332 110.682C161.977 106.046 161.444 99.5465 157.142 96.1647Z" fill="url(#paint2_radial_512_2702)"/>
</g>
<defs>
<filter id="filter0_d_512_2702" x="-4.38279" y="0" width="227.906" height="89.8473" filterUnits="userSpaceOnUse" color-interpolation-filters="sRGB">
<feFlood flood-opacity="0" result="BackgroundImageFix"/>
<feColorMatrix in="SourceAlpha" type="matrix" values="0 0 0 0 0 0 0 0 0 0 0 0 0 0 0 0 0 0 127 0" result="hardAlpha"/>
<feOffset dy="4.38279"/>
<feGaussianBlur stdDeviation="2.1914"/>
<feComposite in2="hardAlpha" operator="out"/>
<feColorMatrix type="matrix" values="0 0 0 0 0 0 0 0 0 0 0 0 0 0 0 0 0 0 0.25 0"/>
<feBlend mode="normal" in2="BackgroundImageFix" result="effect1_dropShadow_512_2702"/>
<feBlend mode="normal" in="SourceGraphic" in2="effect1_dropShadow_512_2702" result="shape"/>
</filter>
<linearGradient id="paint0_linear_512_2702" x1="109.57" y1="13.6962" x2="109.57" y2="195.582" gradientUnits="userSpaceOnUse">
<stop stop-color="white"/>
<stop offset="1" stop-color="#C2FFDA"/>
</linearGradient>
<radialGradient id="paint1_radial_512_2702" cx="0" cy="0" r="1" gradientTransform="matrix(6.10892 48.1663 -65.0531 13.2245 135.87 -48.1633)" gradientUnits="userSpaceOnUse">
<stop stop-color="#C354FF"/>
<stop offset="0.158" stop-color="#B339F0"/>
<stop offset="0.429" stop-color="#F24A9D"/>
<stop offset="0.749" stop-color="#FF835C"/>
<stop offset="1" stop-color="#FFC470"/>
</radialGradient>
<radialGradient id="paint2_radial_512_2702" cx="0" cy="0" r="1" gradientTransform="matrix(6.10892 48.1663 -65.0531 13.2245 135.87 83.3205)" gradientUnits="userSpaceOnUse">
<stop stop-color="#C354FF"/>
<stop offset="0.158" stop-color="#B339F0"/>
<stop offset="0.429" stop-color="#F24A9D"/>
<stop offset="0.749" stop-color="#FF835C"/>
<stop offset="1" stop-color="#FFC470"/>
</radialGradient>
<clipPath id="clip0_512_2702">
<path d="M0 9.86127C0 4.41503 4.41505 0 9.86128 0H209.278C214.725 0 219.14 4.41505 219.14 9.86128V71.2204C219.14 76.6666 214.725 81.0817 209.278 81.0817H9.86129C4.41505 81.0817 0 76.6666 0 71.2204V9.86127Z" fill="white"/>
</clipPath>
</defs>
</svg>
