<svg width="31" height="26" viewBox="0 0 31 26" fill="none" xmlns="http://www.w3.org/2000/svg">
<path d="M17.3302 0C18.5728 0 19.7693 0.152579 20.9195 0.457737C22.0697 0.772739 23.1429 1.21079 24.139 1.77189C25.1352 2.3133 26.0441 2.98267 26.8657 3.78002C27.677 4.56753 28.3753 5.4387 28.9607 6.39355C29.5563 7.3484 30.0133 8.37708 30.3317 9.47959C30.6501 10.5821 30.8092 11.7289 30.8092 12.92C30.8092 14.1111 30.6501 15.2579 30.3317 16.3604C30.0133 17.4629 29.5563 18.4916 28.9607 19.4464C28.3753 20.4013 27.677 21.2725 26.8657 22.06C26.0441 22.8573 25.1352 23.5267 24.139 24.0681C23.1429 24.6391 22.0697 25.0771 20.9195 25.3823C19.7693 25.6874 18.5728 25.84 17.3302 25.84C16.2313 25.84 15.153 25.717 14.0952 25.4709C13.0374 25.2149 12.0361 24.8507 11.0913 24.3782C10.1465 23.8958 9.27358 23.3151 8.47254 22.6358C7.64069 21.9468 6.9064 21.1691 6.26968 20.3029H1.27858C0.939681 20.3029 0.636724 20.1847 0.369711 19.9485C0.123237 19.6925 0 19.4021 0 19.0773V6.7627C0 6.43785 0.123237 6.15238 0.369711 5.90629C0.636724 5.66019 0.939681 5.53714 1.27858 5.53714H6.26968C6.9064 4.67089 7.64069 3.89323 8.47254 3.20416C9.27358 2.51509 10.1465 1.93431 11.0913 1.46181C12.0464 0.989303 13.0477 0.625082 14.0952 0.369143C15.153 0.123048 16.2313 0 17.3302 0ZM18.3007 1.89001V11.9898H28.8374C28.7142 10.6412 28.3599 9.38115 27.7745 8.20974C27.1891 7.03832 26.4292 5.9998 25.4946 5.09417C24.5601 4.19838 23.4715 3.46994 22.2289 2.90885C20.9965 2.34775 19.6871 2.00814 18.3007 1.89001ZM11.5535 11.2072C11.5535 10.6461 11.4508 10.1687 11.2454 9.7749C11.0502 9.37131 10.7832 9.04646 10.4443 8.80037C10.1054 8.54443 9.70491 8.36232 9.24277 8.25403C8.78063 8.13591 8.26714 8.07685 7.70231 8.07685H3.65089V17.7484H6.0232V14.3966H7.60988C8.10283 14.3966 8.58037 14.3178 9.04251 14.1603C9.51492 14.0225 9.93598 13.8207 10.3057 13.5549C10.6754 13.299 10.9732 12.9692 11.1992 12.5656C11.4354 12.1719 11.5535 11.7191 11.5535 11.2072ZM17.3302 23.9943C18.3366 23.9943 19.3071 23.8762 20.2417 23.6399C21.1659 23.384 22.044 23.0493 22.8759 22.6358C23.7077 22.1929 24.4677 21.6613 25.1557 21.0411C25.8438 20.4407 26.4446 19.7664 26.9581 19.0182C27.4716 18.2603 27.8978 17.4432 28.2367 16.5671C28.555 15.691 28.7553 14.7805 28.8374 13.8355H16.3905V1.89001C14.9014 2.00814 13.4996 2.3822 12.1851 3.01221C10.8705 3.64221 9.72031 4.48386 8.73442 5.53714H14.126C14.4649 5.53714 14.7679 5.66019 15.0349 5.90629C15.2814 6.15238 15.4046 6.43785 15.4046 6.7627V19.0773C15.4046 19.4021 15.2814 19.6925 15.0349 19.9485C14.7679 20.1847 14.4649 20.3029 14.126 20.3029H8.73442C9.27871 20.8935 9.87949 21.4152 10.5368 21.868C11.2146 22.3011 11.9078 22.6851 12.6164 23.0198C13.3558 23.3446 14.1209 23.5858 14.9117 23.7433C15.7024 23.9106 16.5086 23.9943 17.3302 23.9943ZM7.47124 9.96686C7.95392 9.96686 8.34417 10.0604 8.64199 10.2474C8.92954 10.4344 9.07332 10.779 9.07332 11.281C9.07332 11.4976 9.02197 11.6748 8.91927 11.8126C8.81658 11.9504 8.68307 12.0734 8.51875 12.1817C8.35444 12.2506 8.17472 12.2998 7.97959 12.3294C7.79473 12.3687 7.59961 12.3884 7.39422 12.3884H6.0232V9.96686H7.47124Z" fill="black"/>
</svg>
