<svg width="30" height="33" viewBox="0 0 30 33" fill="none" xmlns="http://www.w3.org/2000/svg">
<path d="M21.8989 14.648H4.16016L6.69426 31.0329H19.3648L21.8989 14.648Z" stroke="black" stroke-width="1.98769" stroke-miterlimit="10" stroke-linecap="round" stroke-linejoin="round"/>
<path d="M21.4766 17.3787H24.4326L26.9667 22.1576L24.4326 26.9365H19.9979M7.32744 14.6479L2.89276 9.86898L0.992188 4.40736L6.06039 6.45547L13.6627 14.6479M4.15981 11.2344L7.32744 7.82087M28.8673 4.40736L25.6997 0.993851H21.265L18.7309 3.72466V7.13817L21.265 9.18628H23.7991L25.6997 4.40736H28.8673Z" stroke="black" stroke-width="1.98769" stroke-miterlimit="10" stroke-linecap="round" stroke-linejoin="round"/>
<path d="M18.7284 14.6481L21.2625 9.18644L18.7284 7.13834L13.6602 14.6481" stroke="black" stroke-width="1.98769" stroke-miterlimit="10" stroke-linecap="round" stroke-linejoin="round"/>
<path d="M16.1985 10.893V0.993851H9.86328V10.5517M16.1985 3.72466H13.6644M16.1985 6.45547H13.6644" stroke="black" stroke-width="1.98769" stroke-miterlimit="10" stroke-linecap="round" stroke-linejoin="round"/>
</svg>
